<?xml version="1.0" encoding="UTF-8" standalone="no"?>
<svg
   xmlns:dc="http://purl.org/dc/elements/1.1/"
   xmlns:cc="http://creativecommons.org/ns#"
   xmlns:rdf="http://www.w3.org/1999/02/22-rdf-syntax-ns#"
   xmlns:svg="http://www.w3.org/2000/svg"
   xmlns="http://www.w3.org/2000/svg"
   viewBox="0 0 65.160004 85.360001"
   height="85.360001"
   width="65.160004"
   xml:space="preserve"
   id="svg2"
   version="1.1"><metadata
     id="metadata8"><rdf:RDF><cc:Work
         rdf:about=""><dc:format>image/svg+xml</dc:format><dc:type
           rdf:resource="http://purl.org/dc/dcmitype/StillImage" /></cc:Work></rdf:RDF></metadata><defs
     id="defs6"><clipPath
       id="clipPath20"
       clipPathUnits="userSpaceOnUse"><path
         id="path18"
         d="M 0,0 H 488.652 V 640 H 0 Z" /></clipPath></defs><g
     transform="matrix(1.3333333,0,0,-1.3333333,0,85.36)"
     id="g10"><g
       transform="scale(0.1)"
       id="g12"><g
         id="g14"><g
           clip-path="url(#clipPath20)"
           id="g16"><path
             id="path22"
             style="fill:#3C3C3C;fill-opacity:1;fill-rule:nonzero;stroke:none"
             d="m 465.984,256.184 -26.105,-47.305 -25.231,47.305 H 391 c 4.391,-8.004 35.348,-66.219 35.348,-66.219 0,0 0.004,-33.137 0.004,-38.375 h 25.382 c 0.016,5.219 0.008,38.219 0.008,38.219 0,0 32.149,58.312 36.699,66.375 h -22.457" /><path
             id="path24"
             style="fill:#3C3C3C;fill-opacity:1;fill-rule:nonzero;stroke:none"
             d="m 192.52,250.352 c -7.192,5.019 -19.34,7.66 -35.11,7.66 -15.414,0 -26.601,-2.149 -35.187,-7.7 -8.961,-5.792 -13.192,-15.484 -13.192,-30.636 V 186.73 c 0,-15.199 4.403,-25.468 13.094,-30.57 7.047,-4.91 18.527,-7.238 35.285,-7.238 16.516,0 28.328,2.39 35.07,7.105 8.743,5.426 13.293,16 13.293,30.703 v 32.946 c 0,14.433 -4.461,24.754 -13.253,30.676 m -10.434,-62.157 c 0,-18.558 -6.481,-22.789 -24.676,-22.789 -18.207,0 -24.676,4.231 -24.676,22.789 v 31.336 c 0,18.098 6.469,22.004 24.676,22.004 18.195,0 24.676,-3.906 24.676,-22.004 v -31.336" /><path
             id="path26"
             style="fill:#3C3C3C;fill-opacity:1;fill-rule:nonzero;stroke:none"
             d="M 52.3906,256.18 H 0 V 151.586 h 56.0547 c 27.6367,0 37.9101,11.258 37.9101,41.594 v 22.984 c 0,28.797 -11.6484,40.016 -41.5742,40.016 M 70.543,190.664 c 0,-18.316 -9.7735,-22.934 -17.9688,-22.934 H 23.6133 v 73.09 h 28.9609 c 8.1953,0 17.9688,-4.621 17.9688,-21.656 v -28.5" /><path
             id="path28"
             style="fill:#3C3C3C;fill-opacity:1;fill-rule:nonzero;stroke:none"
             d="M 246.707,256.18 H 223.102 V 151.586 h 67.191 v 17.398 h -43.586 v 87.196" /><path
             id="path30"
             style="fill:#3C3C3C;fill-opacity:1;fill-rule:nonzero;stroke:none"
             d="m 348.176,166.789 h -21.328 v 74.399 h 23.238 c 7.863,0 12.766,-6.25 12.766,-14.786 0,-13.125 -6.344,-13.453 -24.446,-14.101 0,-1.946 0,-9.199 0,-12.117 16.168,0.054 29.133,1.023 29.133,-15.723 0,-8.406 -5.375,-17.672 -19.363,-17.672 m 12.527,40.137 c 18.563,1.703 22.586,10.777 22.586,23.867 0,11.516 -4.887,17.379 -10.227,20.676 -4.48,2.812 -9.781,4.711 -20.89,4.711 H 303.25 V 151.586 h 49.562 c 15.227,0 21.571,2.984 24.512,5.004 5.039,3.375 11.578,10.848 11.578,22.738 0,14.059 -4.879,28.137 -28.199,27.598" /><path
             id="path32"
             style="fill:#3C3C3C;fill-opacity:1;fill-rule:nonzero;stroke:none"
             d="m 431.152,345.082 h -55.879 c -57.871,0 -106.171,56.367 -106.171,126.133 0,67.715 48.3,125.137 106.171,125.137 h 55.879 z m -317.832,0 H 57.6758 v 251.27 H 113.32 c 57.852,0 106.153,-57.422 106.153,-125.137 0,-69.766 -48.301,-126.133 -106.153,-126.133 z M 0,640.238 V 301.156 H 488.652 V 640.238 H 0" /><path
             id="path34"
             style="fill:#3C3C3C;fill-opacity:1;fill-rule:nonzero;stroke:none"
             d="M 26.6289,37.5 H 63.2305 L 50.332,75.293 c -2.4023,7.1992 -3.6054,11.25 -5.25,16.5039 H 44.7812 C 43.1289,86.543 41.9297,82.4922 39.5312,75.293 Z M 66.9805,26.8477 H 22.8789 L 14.3281,1.79688 H 0.234375 L 36.3828,103.496 H 53.4805 L 89.7812,1.79688 H 75.6797 L 66.9805,26.8477" /><path
             id="path36"
             style="fill:#3C3C3C;fill-opacity:1;fill-rule:nonzero;stroke:none"
             d="m 126.512,9.44531 c -7.348,7.35159 -8.848,17.25389 -8.848,26.99999 v 67.0507 h 13.648 V 33.75 c 0,-5.1055 0.602,-12 5.704,-17.0977 4.199,-4.2031 9.601,-6.1523 19.347,-6.1523 9.75,0 15.149,1.9492 19.348,6.1523 5.098,5.0977 5.699,11.9922 5.699,17.0977 v 69.746 h 13.652 V 36.4453 c 0,-9.7461 -1.5,-19.6484 -8.851,-26.99999 C 179.762,3 170.762,0 156.363,0 141.961,0 132.965,3 126.512,9.44531" /><path
             id="path38"
             style="fill:#3C3C3C;fill-opacity:1;fill-rule:nonzero;stroke:none"
             d="m 290.211,86.543 c -4.801,4.8047 -11.102,6.3008 -19.199,6.3008 H 248.961 V 12.4492 h 22.051 c 8.097,0 14.398,1.4961 19.199,6.3008 6,5.9961 9.148,16.9453 9.148,33.8984 0,16.9414 -3.148,27.8985 -9.148,33.8946 z M 301.004,11.8477 C 293.809,4.64844 284.961,1.79688 271.309,1.79688 H 235.312 V 103.496 h 35.997 c 13.652,0 22.5,-2.851 29.695,-10.0468 8.254,-8.2539 12.605,-21.6015 12.605,-40.8008 0,-19.1992 -4.351,-32.5507 -12.605,-40.8007" /><path
             id="path40"
             style="fill:#3C3C3C;fill-opacity:1;fill-rule:nonzero;stroke:none"
             d="m 350.855,1.79688 h 13.6445 v 101.699 H 350.855 Z" /><path
             id="path42"
             style="fill:#3C3C3C;fill-opacity:1;fill-rule:nonzero;stroke:none"
             d="m 445.098,11.25 c 22.8,0 29.101,13.3516 29.101,41.3984 0,28.0469 -6.301,41.3946 -29.101,41.3946 -22.805,0 -29.102,-13.3477 -29.102,-41.3946 0,-28.0468 6.297,-41.3984 29.102,-41.3984 z m 0,-11.25 c -33.899,0 -43.352,19.7969 -43.352,52.6484 0,32.8516 9.453,52.6446 43.352,52.6446 33.894,0 43.347,-19.793 43.347,-52.6446 C 488.445,19.7969 478.992,0 445.098,0" /></g></g></g></g></svg>