<?xml version='1.0' encoding='iso-8859-1'?>
<svg version="1.1" xmlns="http://www.w3.org/2000/svg" viewBox="0 0 463 463" xmlns:xlink="http://www.w3.org/1999/xlink" enable-background="new 0 0 463 463">
  <g>
    <path d="m437.5,56h-412c-14.061,0-25.5,11.439-25.5,25.5v300c0,14.061 11.439,25.5 25.5,25.5h412c14.061,0 25.5-11.439 25.5-25.5v-300c0-14.061-11.439-25.5-25.5-25.5zm10.5,325.5c0,5.79-4.71,10.5-10.5,10.5h-412c-5.79,0-10.5-4.71-10.5-10.5v-300c0-5.79 4.71-10.5 10.5-10.5h412c5.79,0 10.5,4.71 10.5,10.5v300z"/>
    <path d="m175.5,208c-4.142,0-7.5,3.358-7.5,7.5v136c0,4.142 3.358,7.5 7.5,7.5s7.5-3.358 7.5-7.5v-136c0-4.142-3.358-7.5-7.5-7.5z"/>
    <path d="m207,167.498c0-12.958-10.542-23.5-23.5-23.5h-0.5v-32.498c0-4.142-3.358-7.5-7.5-7.5s-7.5,3.358-7.5,7.5v32.498h-0.5c-12.958,0-23.5,10.542-23.5,23.5s10.542,23.5 23.5,23.5h16c12.958,0 23.5-10.542 23.5-23.5zm-23.5,8.5h-16c-4.687,0-8.5-3.813-8.5-8.5s3.813-8.5 8.5-8.5h16c4.687,0 8.5,3.813 8.5,8.5s-3.813,8.5-8.5,8.5z"/>
    <path d="m287.5,192c-4.142,0-7.5,3.358-7.5,7.5v152c0,4.142 3.358,7.5 7.5,7.5s7.5-3.358 7.5-7.5v-152c0-4.142-3.358-7.5-7.5-7.5z"/>
    <path d="m319,143.5c0-12.958-10.542-23.5-23.5-23.5h-0.5v-8.5c0-4.142-3.358-7.5-7.5-7.5s-7.5,3.358-7.5,7.5v8.5h-0.5c-12.958,0-23.5,10.542-23.5,23.5s10.542,23.5 23.5,23.5h16c12.958,0 23.5-10.542 23.5-23.5zm-23.5,8.5h-16c-4.687,0-8.5-3.813-8.5-8.5s3.813-8.5 8.5-8.5h16c4.687,0 8.5,3.813 8.5,8.5s-3.813,8.5-8.5,8.5z"/>
    <path d="m63.5,192c-4.142,0-7.5,3.358-7.5,7.5v152c0,4.142 3.358,7.5 7.5,7.5s7.5-3.358 7.5-7.5v-152c0-4.142-3.358-7.5-7.5-7.5z"/>
    <path d="m95,151.5c0-12.958-10.542-23.5-23.5-23.5h-0.5v-16.5c0-4.142-3.358-7.5-7.5-7.5s-7.5,3.358-7.5,7.5v16.5h-0.5c-12.958,0-23.5,10.542-23.5,23.5s10.542,23.5 23.5,23.5h16c12.958,0 23.5-10.542 23.5-23.5zm-23.5,8.5h-16c-4.687,0-8.5-3.813-8.5-8.5s3.813-8.5 8.5-8.5h16c4.687,0 8.5,3.813 8.5,8.5s-3.813,8.5-8.5,8.5z"/>
    <path d="m231.5,336c-4.142,0-7.5,3.358-7.5,7.5v8c0,4.142 3.358,7.5 7.5,7.5s7.5-3.358 7.5-7.5v-8c0-4.142-3.358-7.5-7.5-7.5z"/>
    <path d="m239.5,272.002h-0.5v-160.502c0-4.142-3.358-7.5-7.5-7.5s-7.5,3.358-7.5,7.5v160.502h-0.5c-12.958,0-23.5,10.542-23.5,23.5s10.542,23.5 23.5,23.5h16c12.958,0 23.5-10.542 23.5-23.5s-10.542-23.5-23.5-23.5zm0,32h-16c-4.687,0-8.5-3.813-8.5-8.5s3.813-8.5 8.5-8.5h16c4.687,0 8.5,3.813 8.5,8.5s-3.813,8.5-8.5,8.5z"/>
    <path d="m399.5,232c-4.142,0-7.5,3.358-7.5,7.5v112c0,4.142 3.358,7.5 7.5,7.5s7.5-3.358 7.5-7.5v-112c0-4.142-3.358-7.5-7.5-7.5z"/>
    <path d="m407.5,167.998h-0.5v-56.498c0-4.142-3.358-7.5-7.5-7.5s-7.5,3.358-7.5,7.5v56.498h-0.5c-12.958,0-23.5,10.542-23.5,23.5s10.542,23.5 23.5,23.5h16c12.958,0 23.5-10.542 23.5-23.5s-10.542-23.5-23.5-23.5zm0,32h-16c-4.687,0-8.5-3.813-8.5-8.5s3.813-8.5 8.5-8.5h16c4.687,0 8.5,3.813 8.5,8.5s-3.813,8.5-8.5,8.5z"/>
    <path d="m343.5,320c-4.142,0-7.5,3.358-7.5,7.5v24c0,4.142 3.358,7.5 7.5,7.5s7.5-3.358 7.5-7.5v-24c0-4.142-3.358-7.5-7.5-7.5z"/>
    <path d="m351.5,256.002h-0.5v-144.502c0-4.142-3.358-7.5-7.5-7.5s-7.5,3.358-7.5,7.5v144.502h-0.5c-12.958,0-23.5,10.542-23.5,23.5s10.542,23.5 23.5,23.5h16c12.958,0 23.5-10.542 23.5-23.5s-10.542-23.5-23.5-23.5zm0,32h-16c-4.687,0-8.5-3.813-8.5-8.5s3.813-8.5 8.5-8.5h16c4.687,0 8.5,3.813 8.5,8.5s-3.813,8.5-8.5,8.5z"/>
    <path d="m119.5,296c-4.142,0-7.5,3.358-7.5,7.5v48c0,4.142 3.358,7.5 7.5,7.5s7.5-3.358 7.5-7.5v-48c0-4.142-3.358-7.5-7.5-7.5z"/>
    <path d="m127.5,232.002h-0.5v-120.502c0-4.142-3.358-7.5-7.5-7.5s-7.5,3.358-7.5,7.5v120.502h-0.5c-12.958,0-23.5,10.542-23.5,23.5s10.542,23.5 23.5,23.5h16c12.958,0 23.5-10.542 23.5-23.5s-10.542-23.5-23.5-23.5zm0,32h-16c-4.687,0-8.5-3.813-8.5-8.5s3.813-8.5 8.5-8.5h16c4.687,0 8.5,3.813 8.5,8.5s-3.813,8.5-8.5,8.5z"/>
  </g>
</svg>
