<?xml version="1.0" encoding="iso-8859-1"?>
<!-- Generator: Adobe Illustrator 19.1.0, SVG Export Plug-In . SVG Version: 6.00 Build 0)  -->
<svg version="1.1" id="Capa_1" xmlns="http://www.w3.org/2000/svg" xmlns:xlink="http://www.w3.org/1999/xlink" x="0px" y="0px"
	 viewBox="0 0 477.216 477.216" style="enable-background:new 0 0 477.216 477.216;" xml:space="preserve">
<g>
	<path d="M453.858,105.116v-91.6c0-4.3-2.1-8.4-5.5-10.9c-3.5-2.5-8-3.3-12.1-2l-272.9,86.7c-5.6,1.8-9.4,7-9.4,12.9v91.7v0.1v175.3
		c-14.3-9.9-32.6-15.3-51.8-15.3c-20.3,0-39.6,6.1-54.3,17.1c-15.8,11.9-24.5,28-24.5,45.5s8.7,33.6,24.5,45.5
		c14.7,11,33.9,17.1,54.3,17.1s39.6-6.1,54.3-17.1c15.8-11.9,24.5-28,24.5-45.5v-212.8l245.9-78.2v156.6
		c-14.3-9.9-32.6-15.3-51.8-15.3c-20.3,0-39.6,6.1-54.3,17.1c-15.8,11.9-24.5,28-24.5,45.5s8.7,33.6,24.5,45.5
		c14.7,11,33.9,17.1,54.3,17.1s39.6-6.1,54.3-17.1c15.8-11.9,24.5-28,24.5-45.5v-222.3
		C453.858,105.116,453.858,105.116,453.858,105.116z M102.158,450.216c-28.1,0-51.8-16.3-51.8-35.6c0-19.3,23.7-35.6,51.8-35.6
		s51.8,16.3,51.8,35.6C153.958,434.016,130.258,450.216,102.158,450.216z M180.958,173.416v-63.4l245.9-78.1v63.4L180.958,173.416z
		 M375.158,363.116c-28.1,0-51.8-16.3-51.8-35.6c0-19.3,23.7-35.6,51.8-35.6s51.8,16.3,51.8,35.6
		C426.858,346.816,403.158,363.116,375.158,363.116z"/>
</g>
<g>
</g>
<g>
</g>
<g>
</g>
<g>
</g>
<g>
</g>
<g>
</g>
<g>
</g>
<g>
</g>
<g>
</g>
<g>
</g>
<g>
</g>
<g>
</g>
<g>
</g>
<g>
</g>
<g>
</g>
</svg>
