<?xml version='1.0' encoding='iso-8859-1'?>
<svg version="1.1" xmlns="http://www.w3.org/2000/svg" viewBox="0 0 44 44" xmlns:xlink="http://www.w3.org/1999/xlink" enable-background="new 0 0 44 44">
  <g>
    <g>
      <path d="m34.632,7.277l-2,1.971c-2.958-2.038-6.544-3.248-10.427-3.248-3.874,0-7.456,1.203-10.41,3.233l-2.302-2.268-1.434,1.414 2.771,2.732c0.182,0.271 0.493,0.452 0.849,0.452 0.252,0 0.479-0.094 0.657-0.244 2.736-2.073 6.15-3.319 9.869-3.319 3.739,0 7.173,1.259 9.918,3.352l.01-.013c0.174,0.138 0.392,0.224 0.632,0.224 0.356,0 0.667-0.181 0.848-0.452l2.454-2.419-1.435-1.415z"/>
    </g>
  </g>
  <g>
    <g>
      <path d="m22,2c-12.15,0-22,9.85-22,22 0,4.035 1.102,7.806 3,11.055v3.945c0,0.553 0.447,1 1,1h3.184c0.413,1.162 1.512,2 2.816,2 1.657,0 3-1.343 3-3v-12c0-1.657-1.343-3-3-3-1.305,0-2.403,0.838-2.816,2h-3.184c-0.553,0-1,0.447-1,1v3.132c-0.632-1.935-1-3.986-1-6.132 0-11.046 8.954-20 20-20s20,8.954 20,20c0,2.146-0.368,4.197-1,6.132v-3.132c0-0.553-0.447-1-1-1h-3.184c-0.413-1.162-1.512-2-2.816-2-1.657,0-3,1.343-3,3v12c0,1.657 1.343,3 3,3 1.305,0 2.403-0.838 2.816-2h3.184c0.553,0 1-0.447 1-1v-3.945c1.898-3.249 3-7.019 3-11.055 0-12.15-9.85-22-22-22zm-13,25c0-0.553 0.447-1 1-1 0.553,0 1,0.447 1,1v12c0,0.553-0.447,1-1,1-0.553,0-1-0.447-1-1v-12zm-4,1h2v10h-2v-10zm30,11c0,0.553-0.447,1-1,1-0.553,0-1-0.447-1-1v-12c0-0.553 0.447-1 1-1 0.553,0 1,0.447 1,1v12zm4-1h-2v-10h2v10z"/>
    </g>
  </g>
</svg>
